# xmcd
#
# Track frame offsets:
#	150
#	5217
#	22131
#	40128
#	41909
#	57837
#	78685
#	98241
#	106453
#	122258
#	123901
#	142824
#	145029
#	160505
#	175010
#	194329
#	195081
#	211764
#	223228
#	249181
#
# Disc length: 3662 seconds
#
# Revision: 1
# Processed by: cddbd v1.5.2PL0 Copyright (c) Steve Scherf et al.
# Submitted via: EasyCDDAExtractor 16.0.1.1
#
DISCID=0d0e4c14
DTITLE=Linkin Park - Reanimation
DYEAR=2002
DGENRE=
TTITLE0=Linkin Park - Opening
TTITLE1=Linkin Park feat. Jay Gordon - Pts.of.Athrty
TTITLE2=Linkin Park feat. Kutmasta Kurt and Motion Man - Enth E nd
TTITLE3=Linkin Park - [Chali]
TTITLE4=Linkin Park feat. Alchemist and Chali 2na - Frgt/10
TTITLE5=Linkin Park feat. Mike Shinoda and Stephen Richards - P5hng Me A*wy
TTITLE6=Linkin Park feat. Amp Live and Zion - Plc.4 Mie Hæd
TTITLE7=Linkin Park feat. Black Thought - X-Ecutioner Style
TTITLE8=Linkin Park feat. Evidence, Pharoahe Monch and DJ Babu - H! Vltg3
TTITLE9=Linkin Park - [Riff Raff]
TTITLE10=Linkin Park feat. Chairman Hahn and Aceyalone - Wth>You
TTITLE11=Linkin Park - Ntr\\mssion
TTITLE12=Linkin Park feat. Cheapshot, Jubacca and Rasco and Planet Asia - Ppr:kut
TTITLE13=Linkin Park feat. Backyard Bangers and Phoenix Orion - Rnw@y
TTITLE14=Linkin Park feat. Mickey P. and Kelli Ali - My<Dsmbr
TTITLE15=Linkin Park - [Stef]
TTITLE16=Linkin Park feat. Josh Abraham and Mike Shinoda - By_Myslf
TTITLE17=Linkin Park feat. Chairman Hahn - Kyur4 th Ich
TTITLE18=Linkin Park feat. The Humble Brothers and Jonathan Davis - 1Stp Klosr
TTITLE19=Linkin Park feat. Mike Shinoda and Aaron Lewis - Krwlng
EXTD=
EXTT0=
EXTT1=
EXTT2=
EXTT3=
EXTT4=
EXTT5=
EXTT6=
EXTT7=
EXTT8=
EXTT9=
EXTT10=
EXTT11=
EXTT12=
EXTT13=
EXTT14=
EXTT15=
EXTT16=
EXTT17=
EXTT18=
EXTT19=
PLAYORDER=
